#Comment line ignore any data following # character 
#Hierarchical Translation and Rotation (.htr) file 
[Header]	
#Header keywords are followed by a single value 
FileType HTR		#Single word string
DataType HTRS		#Translation followed by rotation and scale data
FileVersion 1		#integer
NumSegments 84		#integer
NumFrames 2		#integer
DataFrameRate 30		#integer, data frame rate in this file
EulerRotationOrder ZYX
CalibrationUnits mm
RotationUnits Degrees
GlobalAxisofGravity Y
BoneLengthAxis Y
ScaleFactor 1.00
[SegmentNames&Hierarchy]
#CHILD	PARENT
MASTER GLOBAL
root MASTER
chest root
L_mid_tent01 root
R_mid_tent01 root
spine01 root
Bip01_Neck chest
L_humerus chest
R_humerus chest
weapon_bone chest
Bip01_Head Bip01_Neck
eye_left_bone Bip01_Head
eye_right_bone Bip01_Head
L_forearm L_humerus
L_front_hand L_forearm
L_weapon_bone L_forearm
L_front_hand01_01 L_front_hand
L_front_hand02_01 L_front_hand
L_front_hand03_01 L_front_hand
L_front_hand01_02 L_front_hand01_01
L_front_hand02_02 L_front_hand02_01
L_front_hand03_02 L_front_hand03_01
R_forearm R_humerus
R_front_hand R_forearm
R_weapon_bone R_forearm
R_front_hand01_01 R_front_hand
R_front_hand02_01 R_front_hand
R_front_hand03_01 R_front_hand
R_front_hand01_02 R_front_hand01_01
R_front_hand02_02 R_front_hand02_01
R_front_hand03_02 R_front_hand03_01
null_rope01_connect L_mid_tent01
Rope1_Seg01 null_rope01_connect
Rope1_Seg02 Rope1_Seg01
Rope1_Seg03 Rope1_Seg02
Rope1_Seg04 Rope1_Seg03
Rope1_Seg05 Rope1_Seg04
Rope1_Seg06 Rope1_Seg05
Rope1_Seg07 Rope1_Seg06
Rope1_Seg09 Rope1_Seg07
L_mid_hand01 Rope1_Seg09
L_mid_hand02 Rope1_Seg09
L_mid_hand03 Rope1_Seg09
null_rope02_connect R_mid_tent01
Rope2_Seg01 null_rope02_connect
Rope2_Seg02 Rope2_Seg01
Rope2_Seg03 Rope2_Seg02
Rope2_Seg04 Rope2_Seg03
Rope2_Seg05 Rope2_Seg04
Rope2_Seg06 Rope2_Seg05
Rope2_Seg07 Rope2_Seg06
Rope2_Seg09 Rope2_Seg07
R_mid_hand01 Rope2_Seg09
R_mid_hand02 Rope2_Seg09
R_mid_hand03 Rope2_Seg09
spine02 spine01
spine03 spine02
pelvis spine03
null_rope03_connect pelvis
null_rope04_connect pelvis
Rope3_Seg01 null_rope03_connect
Rope3_Seg02 Rope3_Seg01
Rope3_Seg03 Rope3_Seg02
Rope3_Seg04 Rope3_Seg03
Rope3_Seg05 Rope3_Seg04
Rope3_Seg06 Rope3_Seg05
Rope3_Seg07 Rope3_Seg06
Rope3_Seg08 Rope3_Seg07
Rope3_Seg09 Rope3_Seg08
R_rear_hand01 Rope3_Seg09
R_rear_hand02 Rope3_Seg09
R_rear_hand03 Rope3_Seg09
Rope4_Seg01 null_rope04_connect
Rope4_Seg02 Rope4_Seg01
Rope4_Seg03 Rope4_Seg02
Rope4_Seg04 Rope4_Seg03
Rope4_Seg05 Rope4_Seg04
Rope4_Seg06 Rope4_Seg05
Rope4_Seg07 Rope4_Seg06
Rope4_Seg08 Rope4_Seg07
Rope4_Seg09 Rope4_Seg08
L_rear_hand01 Rope4_Seg09
L_rear_hand02 Rope4_Seg09
L_rear_hand03 Rope4_Seg09
[BasePosition]
#SegmentName Tx, Ty, Tz, Rx, Ry, Rz, BoneLength
MASTER 0.000000 0.000000 0.000000 -90.000000 0.000000 0.000000 10.000000 
root 0.000000 0.000000 0.000000 0.000000 0.000000 0.000000 10.000000 
chest 0.000000 0.000000 0.000000 0.000000 0.000000 0.000000 10.000000 
L_mid_tent01 0.000000 0.000000 0.000000 0.000000 0.000000 0.000000 10.000000 
R_mid_tent01 0.000000 0.000000 0.000000 0.000000 0.000000 0.000000 10.000000 
spine01 0.000000 0.000000 0.000000 0.000000 0.000000 0.000000 10.000000 
Bip01_Neck 0.000000 0.000000 0.000000 0.000000 0.000000 0.000000 10.000000 
L_humerus 0.000000 0.000000 0.000000 0.000000 0.000000 0.000000 10.000000 
R_humerus 0.000000 0.000000 0.000000 0.000000 0.000000 0.000000 10.000000 
weapon_bone 0.000000 0.000000 0.000000 0.000000 0.000000 0.000000 10.000000 
Bip01_Head 0.000000 0.000000 0.000000 0.000000 0.000000 0.000000 10.000000 
eye_left_bone 0.000000 0.000000 0.000000 0.000000 0.000000 0.000000 10.000000 
eye_right_bone 0.000000 0.000000 0.000000 0.000000 0.000000 0.000000 10.000000 
L_forearm 0.000000 0.000000 0.000000 0.000000 0.000000 0.000000 10.000000 
L_front_hand 0.000000 0.000000 0.000000 0.000000 0.000000 0.000000 10.000000 
L_weapon_bone 0.000000 0.000000 0.000000 0.000000 0.000000 0.000000 10.000000 
L_front_hand01_01 0.000000 0.000000 0.000000 0.000000 0.000000 0.000000 10.000000 
L_front_hand02_01 0.000000 0.000000 0.000000 0.000000 0.000000 0.000000 10.000000 
L_front_hand03_01 0.000000 0.000000 0.000000 0.000000 0.000000 0.000000 10.000000 
L_front_hand01_02 0.000000 0.000000 0.000000 0.000000 0.000000 0.000000 10.000000 
L_front_hand02_02 0.000000 0.000000 0.000000 0.000000 0.000000 0.000000 10.000000 
L_front_hand03_02 0.000000 0.000000 0.000000 0.000000 0.000000 0.000000 10.000000 
R_forearm 0.000000 0.000000 0.000000 0.000000 0.000000 0.000000 10.000000 
R_front_hand 0.000000 0.000000 0.000000 0.000000 0.000000 0.000000 10.000000 
R_weapon_bone 0.000000 0.000000 0.000000 0.000000 0.000000 0.000000 10.000000 
R_front_hand01_01 0.000000 0.000000 0.000000 0.000000 0.000000 0.000000 10.000000 
R_front_hand02_01 0.000000 0.000000 0.000000 0.000000 0.000000 0.000000 10.000000 
R_front_hand03_01 0.000000 0.000000 0.000000 0.000000 0.000000 0.000000 10.000000 
R_front_hand01_02 0.000000 0.000000 0.000000 0.000000 0.000000 0.000000 10.000000 
R_front_hand02_02 0.000000 0.000000 0.000000 0.000000 0.000000 0.000000 10.000000 
R_front_hand03_02 0.000000 0.000000 0.000000 0.000000 0.000000 0.000000 10.000000 
null_rope01_connect 0.000000 0.000000 0.000000 0.000000 0.000000 0.000000 10.000000 
Rope1_Seg01 0.000000 0.000000 0.000000 0.000000 0.000000 0.000000 10.000000 
Rope1_Seg02 0.000000 0.000000 0.000000 0.000000 0.000000 0.000000 10.000000 
Rope1_Seg03 0.000000 0.000000 0.000000 0.000000 0.000000 0.000000 10.000000 
Rope1_Seg04 0.000000 0.000000 0.000000 0.000000 0.000000 0.000000 10.000000 
Rope1_Seg05 0.000000 0.000000 0.000000 0.000000 0.000000 0.000000 10.000000 
Rope1_Seg06 0.000000 0.000000 0.000000 0.000000 0.000000 0.000000 10.000000 
Rope1_Seg07 0.000000 0.000000 0.000000 0.000000 0.000000 0.000000 10.000000 
Rope1_Seg09 0.000000 0.000000 0.000000 0.000000 0.000000 0.000000 10.000000 
L_mid_hand01 0.000000 0.000000 0.000000 0.000000 0.000000 0.000000 10.000000 
L_mid_hand02 0.000000 0.000000 0.000000 0.000000 0.000000 0.000000 10.000000 
L_mid_hand03 0.000000 0.000000 0.000000 0.000000 0.000000 0.000000 10.000000 
null_rope02_connect 0.000000 0.000000 0.000000 0.000000 0.000000 0.000000 10.000000 
Rope2_Seg01 0.000000 0.000000 0.000000 0.000000 0.000000 0.000000 10.000000 
Rope2_Seg02 0.000000 0.000000 0.000000 0.000000 0.000000 0.000000 10.000000 
Rope2_Seg03 0.000000 0.000000 0.000000 0.000000 0.000000 0.000000 10.000000 
Rope2_Seg04 0.000000 0.000000 0.000000 0.000000 0.000000 0.000000 10.000000 
Rope2_Seg05 0.000000 0.000000 0.000000 0.000000 0.000000 0.000000 10.000000 
Rope2_Seg06 0.000000 0.000000 0.000000 0.000000 0.000000 0.000000 10.000000 
Rope2_Seg07 0.000000 0.000000 0.000000 0.000000 0.000000 0.000000 10.000000 
Rope2_Seg09 0.000000 0.000000 0.000000 0.000000 0.000000 0.000000 10.000000 
R_mid_hand01 0.000000 0.000000 0.000000 0.000000 0.000000 0.000000 10.000000 
R_mid_hand02 0.000000 0.000000 0.000000 0.000000 0.000000 0.000000 10.000000 
R_mid_hand03 0.000000 0.000000 0.000000 0.000000 0.000000 0.000000 10.000000 
spine02 0.000000 0.000000 0.000000 0.000000 0.000000 0.000000 10.000000 
spine03 0.000000 0.000000 0.000000 0.000000 0.000000 0.000000 10.000000 
pelvis 0.000000 0.000000 0.000000 0.000000 0.000000 0.000000 10.000000 
null_rope03_connect 0.000000 0.000000 0.000000 0.000000 0.000000 0.000000 10.000000 
null_rope04_connect 0.000000 0.000000 0.000000 0.000000 0.000000 0.000000 10.000000 
Rope3_Seg01 0.000000 0.000000 0.000000 0.000000 0.000000 0.000000 10.000000 
Rope3_Seg02 0.000000 0.000000 0.000000 0.000000 0.000000 0.000000 10.000000 
Rope3_Seg03 0.000000 0.000000 0.000000 0.000000 0.000000 0.000000 10.000000 
Rope3_Seg04 0.000000 0.000000 0.000000 0.000000 0.000000 0.000000 10.000000 
Rope3_Seg05 0.000000 0.000000 0.000000 0.000000 0.000000 0.000000 10.000000 
Rope3_Seg06 0.000000 0.000000 0.000000 0.000000 0.000000 0.000000 10.000000 
Rope3_Seg07 0.000000 0.000000 0.000000 0.000000 0.000000 0.000000 10.000000 
Rope3_Seg08 0.000000 0.000000 0.000000 0.000000 0.000000 0.000000 10.000000 
Rope3_Seg09 0.000000 0.000000 0.000000 0.000000 0.000000 0.000000 10.000000 
R_rear_hand01 0.000000 0.000000 0.000000 0.000000 0.000000 0.000000 10.000000 
R_rear_hand02 0.000000 0.000000 0.000000 0.000000 0.000000 0.000000 10.000000 
R_rear_hand03 0.000000 0.000000 0.000000 0.000000 0.000000 0.000000 10.000000 
Rope4_Seg01 0.000000 0.000000 0.000000 0.000000 0.000000 0.000000 10.000000 
Rope4_Seg02 0.000000 0.000000 0.000000 0.000000 0.000000 0.000000 10.000000 
Rope4_Seg03 0.000000 0.000000 0.000000 0.000000 0.000000 0.000000 10.000000 
Rope4_Seg04 0.000000 0.000000 0.000000 0.000000 0.000000 0.000000 10.000000 
Rope4_Seg05 0.000000 0.000000 0.000000 0.000000 0.000000 0.000000 10.000000 
Rope4_Seg06 0.000000 0.000000 0.000000 0.000000 0.000000 0.000000 10.000000 
Rope4_Seg07 0.000000 0.000000 0.000000 0.000000 0.000000 0.000000 10.000000 
Rope4_Seg08 0.000000 0.000000 0.000000 0.000000 0.000000 0.000000 10.000000 
Rope4_Seg09 0.000000 0.000000 0.000000 0.000000 0.000000 0.000000 10.000000 
L_rear_hand01 0.000000 0.000000 0.000000 0.000000 0.000000 0.000000 10.000000 
L_rear_hand02 0.000000 0.000000 0.000000 0.000000 0.000000 0.000000 10.000000 
L_rear_hand03 0.000000 0.000000 0.000000 0.000000 0.000000 0.000000 10.000000 
#Beginning of Data. Separated by tabs
#Fr	Tx	Ty	Tz	Rx	Ry	Rz	SF
[MASTER]
39 0.000000 0.000000 0.000000 0.001660 0.001660 0.001660 0.000000
40 0.000000 0.000000 0.000000 0.001660 0.001660 0.001660 0.000000
[root]
39 -18.726290 -102.873779 1006.842468 -88.177658 -50.848545 -91.440025 1012.257629
40 -18.291481 -114.800873 996.165039 -87.898361 -52.269676 -91.665527 1002.925049
[chest]
39 -84.512650 -34.090519 0.000000 2.171535 -2.005352 -125.886902 91.129311
40 -84.512650 -34.090519 0.000000 2.189812 -1.976936 -125.647728 91.129311
[L_mid_tent01]
39 27.299500 22.177483 -249.917984 -16.917923 -9.734623 74.740402 252.380859
40 27.299500 22.177483 -249.917984 -17.291382 -9.035646 78.613136 252.380859
[R_mid_tent01]
39 23.228794 24.509907 226.238495 -171.095566 5.225561 72.778847 228.744751
40 23.228794 24.509907 226.238495 -171.256668 4.984524 75.955612 228.744751
[spine01]
39 -0.361383 -0.195265 0.000000 0.001929 0.001339 20.487932 0.410763
40 -0.361383 -0.195265 0.000000 0.001931 0.001336 20.618288 0.410763
[Bip01_Neck]
39 165.484543 71.581718 0.000119 175.896118 1.177290 24.871183 180.302734
40 165.484543 71.581718 0.000119 175.896118 1.177290 24.871183 180.302734
[L_humerus]
39 -13.983130 -135.272980 -120.471481 -92.093544 0.730524 -171.453354 181.680161
40 -13.983130 -135.272980 -120.471481 -92.374985 0.662683 -174.169647 181.680161
[R_humerus]
39 -13.983309 -135.273102 125.287651 103.000740 1.729733 -169.272232 184.909012
40 -13.983309 -135.273102 125.287651 103.000740 1.729732 -169.272232 184.909012
[weapon_bone]
39 235.964890 -300.705902 0.000000 0.000000 -89.951546 -128.212341 382.234833
40 235.964890 -300.705902 0.000000 0.000000 -89.951546 -128.212341 382.234833
[Bip01_Head]
39 102.819786 23.735502 5.410339 3.150732 3.423702 -20.839094 105.662453
40 102.819786 23.735495 5.410344 3.150732 3.423702 -20.839094 105.662453
[eye_left_bone]
39 -24.626970 125.451866 -64.772606 0.000000 -90.000000 -99.840431 143.318359
40 -24.626970 125.451866 -64.772606 0.000000 -90.000000 -99.840431 143.318359
[eye_right_bone]
39 -24.626970 125.451866 64.327362 0.000000 -89.960434 80.159386 143.117676
40 -24.626970 125.451866 64.327362 0.000000 -89.960434 80.159386 143.117676
[L_forearm]
39 322.776093 0.000000 -0.000119 0.000109 0.002345 -84.666626 322.776093
40 322.776093 0.000000 -0.000119 0.000101 0.002345 -85.070648 322.776093
[L_front_hand]
39 241.149185 -0.042021 -3.300071 -177.735535 -0.136960 -77.895599 241.171753
40 241.149185 -0.042021 -3.300071 -177.736572 -0.148687 -77.654343 241.171753
[L_weapon_bone]
39 156.183838 0.000000 0.000000 0.002126 0.000995 39.830189 156.183838
40 156.183838 0.000000 0.000000 0.002119 0.001010 39.042133 156.183838
[L_front_hand01_01]
39 86.095154 20.947098 -0.655860 0.405585 -0.442306 -4.620490 88.609184
40 86.095154 20.947098 -0.655860 0.405585 -0.442306 -4.620490 88.609184
[L_front_hand02_01]
39 86.935165 -11.437475 24.513514 116.959450 3.630818 1.495453 91.046425
40 86.935165 -11.437475 24.513514 116.959450 3.630817 1.495453 91.046425
[L_front_hand03_01]
39 86.637497 -14.123976 -20.424902 -118.420097 -4.656303 -0.152527 90.126129
40 86.637497 -14.123976 -20.424902 -118.420097 -4.656303 -0.152527 90.126129
[L_front_hand01_02]
39 71.020905 -0.000179 0.000030 0.001534 0.001777 -8.378848 71.020905
40 71.020905 -0.000179 0.000030 0.001534 0.001777 -8.378850 71.020905
[L_front_hand02_02]
39 71.020927 -0.000119 0.000060 0.001534 0.001777 -8.378848 71.020927
40 71.020927 -0.000119 0.000060 0.001534 0.001777 -8.378850 71.020927
[L_front_hand03_02]
39 71.020905 -0.000060 0.000060 0.001534 0.001777 -8.378848 71.020905
40 71.020905 -0.000060 0.000060 0.001534 0.001777 -8.378850 71.020905
[R_forearm]
39 322.776428 -0.000060 0.000030 0.209843 0.000034 -91.300392 322.776428
40 322.776428 -0.000060 0.000030 0.213289 0.004200 -91.638771 322.776428
[R_front_hand]
39 238.847015 -0.006795 2.210259 -1.702877 -0.301883 -88.818420 238.857239
40 238.847015 -0.006795 2.210259 -1.700661 -0.311542 -89.146271 238.857239
[R_weapon_bone]
39 155.664093 0.002503 -0.000030 0.002747 0.002450 -137.059341 155.664078
40 155.664093 0.002503 -0.000030 0.002766 0.002428 -136.154480 155.664078
[R_front_hand01_01]
39 87.624611 14.231146 22.918642 -116.960213 3.496675 -1.324139 91.683487
40 87.624611 14.231146 22.918642 -116.960213 3.496675 -1.324139 91.683487
[R_front_hand02_01]
39 89.356956 14.367283 -19.491137 118.419647 -4.257089 0.609827 92.579636
40 89.356956 14.367283 -19.491137 118.419647 -4.257089 0.609827 92.579636
[R_front_hand03_01]
39 87.286232 -22.307278 -0.143439 -0.387970 -0.231462 4.232001 90.091743
40 87.286232 -22.307278 -0.143439 -0.387970 -0.231462 4.232001 90.091743
[R_front_hand01_02]
39 71.020905 0.000060 0.000119 0.001777 0.001534 8.377220 71.020905
40 71.020905 0.000060 0.000119 0.001777 0.001534 8.377220 71.020905
[R_front_hand02_02]
39 71.020844 -0.000030 -0.000119 0.001777 0.001534 8.377220 71.020836
40 71.020844 -0.000030 -0.000119 0.001777 0.001534 8.377220 71.020836
[R_front_hand03_02]
39 71.020905 0.000000 0.000030 0.001777 0.001534 8.377220 71.020905
40 71.020905 0.000000 0.000030 0.001777 0.001534 8.377220 71.020905
[null_rope01_connect]
39 328.732483 0.000000 -0.000238 124.397209 -71.247887 -56.666973 328.732483
40 328.732483 0.000000 -0.000238 123.866531 -71.297386 -58.637661 328.732483
[Rope1_Seg01]
39 0.000000 0.000000 0.000000 125.029602 34.316734 165.262070 0.000000
40 0.000000 0.000000 0.000000 123.721474 36.133957 160.971786 0.000000
[Rope1_Seg02]
39 139.999863 -0.000179 0.000000 -1.137318 -8.303629 10.990572 139.999863
40 139.999863 -0.000179 0.000000 -1.730433 -9.074697 14.071304 139.999863
[Rope1_Seg03]
39 139.999924 0.000060 -0.000060 -7.328679 -26.680307 28.533358 139.999924
40 139.999924 0.000060 -0.000060 -8.625908 -27.190113 33.741253 139.999924
[Rope1_Seg04]
39 139.999924 -0.000060 -0.000119 -0.235252 -22.959066 35.187378 139.999924
40 139.999924 -0.000060 -0.000119 17.228947 -16.472118 34.011433 139.999924
[Rope1_Seg05]
39 139.999832 0.000119 -0.000060 96.524681 10.229765 45.722279 139.999832
40 139.999832 0.000119 -0.000060 86.445290 20.896044 39.312214 139.999832
[Rope1_Seg06]
39 139.999954 0.000119 -0.000060 8.835102 17.277569 -3.626815 139.999954
40 139.999954 0.000119 -0.000060 6.820681 15.959673 -4.150553 139.999954
[Rope1_Seg07]
39 139.999985 0.000060 0.000000 2.127167 6.426423 -2.118406 139.999985
40 139.999985 0.000060 0.000000 1.770777 6.358297 -2.312702 139.999985
[Rope1_Seg09]
39 121.602913 0.000119 -0.000089 -89.793175 -1.359789 0.847147 121.602913
40 121.602913 0.000119 -0.000089 -89.793175 -1.359789 0.847147 121.602913
[L_mid_hand01]
39 103.859421 1.038730 8.195221 104.407990 -4.870636 -1.781465 104.187431
40 103.859421 1.038730 8.195221 104.389481 -4.105224 -1.584808 104.187431
[L_mid_hand02]
39 105.572853 -4.139662 -10.864139 -135.999954 7.652844 -7.257225 106.211075
40 105.572853 -4.139662 -10.864139 -135.925842 7.105309 -6.685351 106.211075
[L_mid_hand03]
39 104.641464 17.579376 -3.913581 -18.716438 1.403100 8.033612 106.179977
40 104.641464 17.579376 -3.913581 -18.733006 1.149883 7.286319 106.179977
[null_rope02_connect]
39 328.732849 0.000179 -0.000119 132.479126 78.921608 -115.935043 328.732849
40 328.732849 0.000179 -0.000119 132.263702 79.125656 -114.358322 328.732849
[Rope2_Seg01]
39 0.000095 0.000153 0.000058 -67.573891 35.176006 15.402977 0.000189
40 0.000095 0.000153 0.000060 -66.634880 38.878071 21.029842 0.000190
[Rope2_Seg02]
39 139.999741 -0.000060 -0.000119 1.679026 -10.010632 1.200167 139.999756
40 139.999741 -0.000060 -0.000119 2.544155 -12.019033 -0.340814 139.999756
[Rope2_Seg03]
39 140.000107 0.000030 0.000000 -1.473898 -27.053072 9.211678 140.000107
40 140.000107 0.000030 0.000000 -1.153248 -33.036324 6.310045 140.000107
[Rope2_Seg04]
39 139.999802 0.000000 -0.000060 -10.758081 -46.958866 4.415319 139.999802
40 139.999802 0.000000 -0.000060 -14.996589 -46.135727 -9.854610 139.999802
[Rope2_Seg05]
39 139.999985 -0.000060 0.000119 -35.653923 -29.476816 -40.756153 139.999985
40 139.999985 -0.000060 0.000119 -31.942533 -19.338961 -39.276913 139.999985
[Rope2_Seg06]
39 139.999893 -0.000030 -0.000119 -9.031047 -0.628640 -14.364081 139.999893
40 139.999893 -0.000030 -0.000119 -7.140950 0.394639 -12.988980 139.999893
[Rope2_Seg07]
39 139.999893 0.000060 -0.000060 -2.987072 0.627135 -5.835373 139.999893
40 139.999893 0.000060 -0.000060 -2.399865 0.839316 -5.400128 139.999893
[Rope2_Seg09]
39 121.338966 0.000089 -0.000060 33.793236 -1.359788 -0.847141 121.338966
40 121.338966 0.000089 -0.000060 33.793236 -1.359788 -0.847141 121.338966
[R_mid_hand01]
39 104.680779 11.144459 -10.335981 -47.091175 6.702209 8.919929 105.778534
40 104.680779 11.144459 -10.335981 -47.147362 6.154511 8.411724 105.778534
[R_mid_hand02]
39 104.070427 2.443552 8.231699 75.520813 -7.181329 2.381642 104.424065
40 104.070427 2.443552 8.231699 75.547600 -6.459216 2.199198 104.424065
[R_mid_hand03]
39 106.028137 -11.221827 -5.996406 -164.649872 3.853078 -11.047693 106.788818
40 106.028137 -11.221827 -5.996406 -164.602982 3.658379 -10.329925 106.788818
[spine02]
39 129.756927 0.001550 0.000119 -2.084364 -3.664713 22.491785 129.756927
40 129.756927 0.001550 0.000119 -2.185936 -3.634576 24.096277 129.756927
[spine03]
39 78.995163 0.020947 -1.175709 3.705808 5.764053 33.721592 79.003914
40 79.005203 0.019202 -1.077735 3.874817 5.957563 35.733936 79.012558
[pelvis]
39 169.435242 0.051022 0.000000 -5.474157 -2.398285 10.146153 169.435257
40 169.435242 0.051022 0.000000 -5.623697 -2.440562 10.465793 169.435257
[null_rope03_connect]
39 -1.257226 -2.466202 137.391083 155.483887 -86.019653 -101.117424 137.418976
40 -1.257226 -2.466202 137.391083 155.823059 -86.011833 -104.080612 137.418976
[null_rope04_connect]
39 -1.259640 -2.480268 -137.844437 155.483887 -86.019653 -101.117424 137.872513
40 -1.259640 -2.480268 -137.844437 155.823059 -86.011833 -104.080612 137.872513
[Rope3_Seg01]
39 0.000000 0.000000 0.000000 -150.240860 60.287724 -91.174477 0.000000
40 0.000000 0.000000 0.000000 -153.786987 64.496941 -93.320984 0.000000
[Rope3_Seg02]
39 139.999924 -0.000119 0.000060 -6.400323 -11.007175 9.285961 139.999924
40 139.999924 -0.000119 0.000060 -5.853739 -10.476030 8.013311 139.999924
[Rope3_Seg03]
39 139.999924 -0.000119 0.000119 -29.877439 -40.206940 34.044777 139.999924
40 139.999924 -0.000119 0.000119 -24.543043 -37.321743 27.788866 139.999924
[Rope3_Seg04]
39 139.999924 0.000119 0.000000 -9.558525 -37.911816 13.707418 139.999924
40 139.999924 0.000119 0.000000 -9.569677 -38.471035 13.638804 139.999924
[Rope3_Seg05]
39 139.999924 -0.000238 0.000060 -9.755010 -62.845020 32.808170 139.999924
40 139.999924 -0.000238 0.000060 -5.816129 -60.708302 27.630289 139.999924
[Rope3_Seg06]
39 139.999893 -0.000119 -0.000060 6.461163 -27.231764 14.526170 139.999893
40 139.999893 -0.000119 -0.000060 7.268279 -34.193939 18.608183 139.999893
[Rope3_Seg07]
39 139.999771 0.000060 -0.000119 2.534867 -5.735290 4.135318 139.999771
40 139.999771 0.000060 -0.000119 2.717921 -6.029512 4.709839 139.999771
[Rope3_Seg08]
39 139.999985 -0.000060 0.000000 1.441221 -2.396864 1.900996 139.999985
40 139.999985 -0.000060 0.000000 1.481552 -2.414877 2.087950 139.999985
[Rope3_Seg09]
39 90.185997 -0.000179 -0.000060 89.793228 -1.359877 -0.847183 90.185997
40 90.185997 -0.000179 -0.000060 89.793228 -1.359877 -0.847183 90.185997
[R_rear_hand01]
39 103.366196 -6.073594 -10.757982 -156.575150 7.949386 -7.109314 104.101845
40 103.366196 -6.073594 -10.757982 -156.486771 7.679572 -6.474085 104.101845
[R_rear_hand02]
39 100.509819 12.039542 -7.992327 -38.488918 4.871152 9.116030 101.543350
40 100.509819 12.039542 -7.992327 -38.533604 4.446143 8.583592 101.543350
[R_rear_hand03]
39 101.539970 5.215704 5.435467 84.267273 -7.012322 4.568024 101.819031
40 101.539970 5.215704 5.435467 84.280045 -6.335141 4.496730 101.819031
[Rope4_Seg01]
39 0.000000 0.000000 0.000000 85.411476 68.461311 -72.180412 0.000000
40 0.000000 0.000000 0.000000 86.491951 71.040276 -72.220009 0.000000
[Rope4_Seg02]
39 139.999985 0.000060 0.000119 2.995598 2.175052 -6.179356 139.999985
40 139.999985 0.000060 0.000119 2.902941 2.198082 -6.304314 139.999985
[Rope4_Seg03]
39 139.999924 0.000000 -0.000238 7.731110 6.175207 -21.956919 139.999924
40 139.999924 0.000000 -0.000238 6.939797 5.752849 -20.319473 139.999924
[Rope4_Seg04]
39 139.999985 0.000000 0.000119 1.609657 5.455464 -65.115685 139.999985
40 139.999985 0.000000 0.000119 2.105155 6.248025 -61.313618 139.999985
[Rope4_Seg05]
39 139.999802 -0.000060 -0.000119 -15.566041 3.913380 -46.334095 139.999802
40 139.999802 -0.000060 -0.000119 -11.783329 2.953884 -41.926094 139.999802
[Rope4_Seg06]
39 139.999924 0.000000 0.000060 -26.728914 15.844172 -47.345455 139.999924
40 139.999924 0.000000 0.000060 -30.252613 14.230899 -55.868057 139.999924
[Rope4_Seg07]
39 139.999802 0.000000 0.000000 -4.045132 7.576363 -9.197655 139.999802
40 139.999802 0.000000 0.000000 -5.059797 8.839216 -11.145263 139.999802
[Rope4_Seg08]
39 139.999924 0.000000 0.000119 -2.690208 3.077523 -3.282837 139.999924
40 139.999924 0.000000 0.000119 -2.811949 3.353654 -3.605129 139.999924
[Rope4_Seg09]
39 90.185791 0.000060 0.000060 -135.617828 2.228885 0.850567 90.185791
40 90.185791 0.000060 0.000060 -135.617828 2.228885 0.850567 90.185791
[L_rear_hand01]
39 101.696655 -8.392275 -7.654577 -38.654175 -2.955494 173.291077 102.329041
40 101.696655 -8.392275 -7.654577 -38.678894 -2.487756 173.878845 102.329041
[L_rear_hand02]
39 102.726799 -1.568258 5.773216 84.296814 3.951355 175.742798 102.900848
40 102.726799 -1.568258 5.773216 84.303062 3.204923 175.816086 102.900848
[L_rear_hand03]
39 104.552910 9.721220 -10.420293 -156.210083 -6.715692 -175.735382 105.519653
40 104.552910 9.721220 -10.420293 -156.133560 -6.416194 -176.421570 105.519653
